<svg width="460" height="538" viewBox="0 0 460 538" fill="none" xmlns="http://www.w3.org/2000/svg">
<g clip-path="url(#clip0_2_174)">
<mask id="path-1-inside-1_2_174" fill="white">
<path d="M0 7.99999C0 3.58171 3.58172 0 8 0H452C456.418 0 460 3.58172 460 8V530C460 534.418 456.418 538 452 538H8.00001C3.58173 538 0 534.418 0 530V7.99999Z"/>
</mask>
<path d="M0 7.99999C0 3.58171 3.58172 0 8 0H452C456.418 0 460 3.58172 460 8V530C460 534.418 456.418 538 452 538H8.00001C3.58173 538 0 534.418 0 530V7.99999Z" fill="white"/>
<path d="M429.9 426.54H396.78V426.79H429.9V426.54Z" fill="#EBEBEB"/>
<path d="M311.22 429.26H302.53V429.51H311.22V429.26Z" fill="#EBEBEB"/>
<path d="M395.78 417.26H376.59V417.51H395.78V417.26Z" fill="#EBEBEB"/>
<path d="M75.65 418.94H32.46V419.19H75.65V418.94Z" fill="#EBEBEB"/>
<path d="M90.89 418.94H84.56V419.19H90.89V418.94Z" fill="#EBEBEB"/>
<path d="M205.15 423.16H111.47V423.41H205.15V423.16Z" fill="#EBEBEB"/>
<path d="M480 410.45H-20V410.7H480V410.45Z" fill="#EBEBEB"/>
<path d="M99.33 342.8C98.49 333.14 88.63 329.53 76.94 330.55C65.26 331.57 56.18 336.85 57.02 346.5L99.33 342.8Z" fill="#F0F0F0"/>
<path d="M76.56 326.13C81.98 325.66 83.71 321.08 83.24 315.65C82.77 310.23 80.27 306.02 74.84 306.49C69.42 306.96 67.69 311.54 68.16 316.97C68.63 322.39 71.13 326.6 76.56 326.13Z" fill="#F0F0F0"/>
<path d="M320.1 137.02C320.36 140.01 318.15 142.65 315.16 142.91C312.17 143.17 309.53 140.96 309.27 137.97C309.01 134.98 311.22 132.34 314.21 132.08C317.2 131.82 319.84 134.03 320.1 137.02Z" fill="#F5F5F5"/>
<path d="M350.17 134.39C350.43 137.38 348.22 140.02 345.23 140.28C342.24 140.54 339.6 138.33 339.34 135.34C339.08 132.35 341.29 129.71 344.28 129.45C347.27 129.19 349.91 131.4 350.17 134.39Z" fill="#F5F5F5"/>
<path d="M380.25 131.76C380.51 134.75 378.3 137.39 375.31 137.65C372.32 137.91 369.68 135.7 369.42 132.71C369.16 129.72 371.37 127.08 374.36 126.82C377.35 126.56 379.99 128.77 380.25 131.76Z" fill="#F5F5F5"/>
<path d="M322.78 167.67C323.04 170.66 320.83 173.3 317.84 173.56C314.85 173.82 312.21 171.61 311.95 168.62C311.69 165.63 313.9 162.99 316.89 162.73C319.88 162.47 322.52 164.68 322.78 167.67Z" fill="#F5F5F5"/>
<path d="M352.85 165.04C353.11 168.03 350.9 170.67 347.91 170.93C344.92 171.19 342.28 168.98 342.02 165.99C341.76 163 343.97 160.36 346.96 160.1C349.95 159.84 352.59 162.05 352.85 165.04Z" fill="#F5F5F5"/>
<path d="M382.93 162.41C383.19 165.4 380.98 168.04 377.99 168.3C375 168.56 372.36 166.35 372.1 163.36C371.84 160.37 374.05 157.73 377.04 157.47C380.03 157.21 382.67 159.42 382.93 162.41Z" fill="#F5F5F5"/>
<path d="M325.46 198.32C325.72 201.31 323.51 203.95 320.52 204.21C317.53 204.47 314.89 202.26 314.63 199.27C314.37 196.28 316.58 193.64 319.57 193.38C322.56 193.12 325.2 195.33 325.46 198.32Z" fill="#F5F5F5"/>
<path d="M355.54 195.69C355.8 198.68 353.59 201.32 350.6 201.58C347.61 201.84 344.97 199.63 344.71 196.64C344.45 193.65 346.66 191.01 349.65 190.75C352.64 190.49 355.28 192.7 355.54 195.69Z" fill="#F5F5F5"/>
<path d="M385.61 193.06C385.87 196.05 383.66 198.69 380.67 198.95C377.68 199.21 375.04 197 374.78 194.01C374.52 191.02 376.73 188.38 379.72 188.12C382.71 187.86 385.35 190.07 385.61 193.06Z" fill="#F5F5F5"/>
<path d="M379.11 194.83L317.32 200.24L372.1 133.67L315.97 138.58C315.31 138.64 314.74 138.15 314.68 137.5C314.62 136.84 315.11 136.27 315.76 136.21L377.55 130.8L322.77 197.37L378.9 192.46C379.56 192.4 380.13 192.89 380.19 193.54C380.25 194.2 379.76 194.77 379.11 194.83Z" fill="#E6E6E6"/>
<path d="M380.06 313.65C379.86 313.06 379.33 312.62 378.71 312.58C375.88 312.39 373.48 311.33 371.59 309.43C369.12 306.95 367.67 303.17 367.43 298.69C367.39 297.85 366.69 297.2 365.85 297.2C364.92 297.2 364.19 297.98 364.24 298.9C364.53 304.16 366.3 308.65 369.33 311.69C371.69 314.06 374.74 315.45 378.21 315.75C378.27 315.75 378.35 315.76 378.44 315.77C379.59 315.86 380.46 314.74 380.08 313.65H380.06Z" fill="#F0F0F0"/>
<path d="M376.86 332.85C363.61 331.69 354.05 322.66 351.02 308.56C350.83 307.66 351.4 306.78 352.31 306.62C353.15 306.47 353.96 307.01 354.14 307.84C356.85 320.52 365.36 328.64 377.14 329.67C390.06 330.8 403.93 322.3 406.41 300.88C406.51 300.01 407.27 299.37 408.14 299.45C409.03 299.53 409.7 300.32 409.59 301.21C407.21 321.41 393.93 334.36 376.85 332.86L376.86 332.85Z" fill="#F0F0F0"/>
<path d="M351.86 294.51C350.97 294.43 350.3 293.64 350.41 292.75C352.79 272.55 366.07 259.6 383.15 261.1C398.11 262.41 408.19 273.61 409.77 290.48C409.85 291.37 409.16 292.15 408.27 292.2C407.4 292.25 406.66 291.59 406.58 290.73C405.14 275.53 396.16 265.46 382.88 264.29C369.96 263.16 356.09 271.66 353.61 293.08C353.51 293.95 352.75 294.59 351.88 294.51H351.86Z" fill="#F0F0F0"/>
<path d="M377.51 324.28C375.05 324.06 372.74 323.49 370.61 322.56C369.75 322.18 369.39 321.14 369.84 320.32C370.23 319.6 371.11 319.29 371.86 319.62C373.85 320.5 376.06 321.01 378.43 321.14C388.23 321.7 398.57 314.76 399.58 298C400.2 287.67 396.67 279.33 390.06 275.34C389.35 274.91 389.09 274.02 389.45 273.27C389.86 272.43 390.92 272.12 391.72 272.6C399.36 277.21 403.47 286.63 402.77 298.18C401.79 314.35 391.71 325.1 378.24 324.33C377.99 324.32 377.74 324.3 377.49 324.28H377.51Z" fill="#F0F0F0"/>
<path d="M363.27 314.31C362.5 314.84 361.44 314.59 360.97 313.78C358.13 308.88 356.81 302.55 357.22 295.76C358.15 280.29 367.43 269.78 380.02 269.58C380.95 269.56 381.71 270.35 381.66 271.28C381.61 272.12 380.94 272.77 380.1 272.79C370.76 272.97 361.38 280.03 360.42 295.96C360.05 302.14 361.23 307.85 363.76 312.22C364.18 312.94 363.96 313.85 363.27 314.32V314.31Z" fill="#F0F0F0"/>
<path d="M385.13 313C384.8 312.26 385.09 311.4 385.78 310.98C389.98 308.45 392.57 303.13 392.61 296.73C392.64 291.6 391.16 287.26 388.42 284.51C386.31 282.39 383.58 281.32 380.3 281.33C375.37 281.34 371.38 284.04 369.17 288.8C368.82 289.55 367.96 289.9 367.18 289.62C366.3 289.3 365.88 288.28 366.28 287.43C369.02 281.59 374.15 278.15 380.3 278.13C384.4 278.13 387.99 279.55 390.69 282.26C394.04 285.62 395.86 290.77 395.82 296.76C395.77 304.32 392.59 310.66 387.4 313.76C386.58 314.25 385.52 313.88 385.13 313.01V313Z" fill="#F0F0F0"/>
<path d="M373.61 301.24C372.7 301.61 371.68 301.08 371.45 300.13C371.34 299.7 371.26 299.25 371.19 298.79C370.28 292.81 373.5 287.6 378.67 286.67C381.34 286.19 383.72 286.82 385.54 288.44C386.28 289.1 386.22 290.28 385.42 290.85L385.32 290.92C384.71 291.35 383.92 291.26 383.35 290.77C382.26 289.84 380.89 289.52 379.24 289.81C375.3 290.51 373.8 294.61 374.36 298.3C374.41 298.66 374.48 299.01 374.56 299.34C374.75 300.12 374.36 300.93 373.61 301.23V301.24Z" fill="#F0F0F0"/>
<path d="M378.9 307.4C378.9 307.4 378.9 307.4 378.89 307.4C377.79 307.3 377.18 306.07 377.77 305.13L377.91 304.91C378.21 304.44 378.73 304.18 379.29 304.22C379.76 304.25 380.27 304.22 380.79 304.13C384.23 303.51 385.81 300.31 385.78 297.05C385.78 296.24 386.34 295.54 387.14 295.41C388.08 295.27 388.97 295.97 388.98 296.92C389.08 302.14 386 306.45 381.35 307.28C380.51 307.43 379.69 307.47 378.91 307.4H378.9Z" fill="#F0F0F0"/>
<path d="M379.61 301.49C377.91 301.34 376.64 300.19 376.17 298.55C375.9 297.6 376.7 296.68 377.68 296.77L378.05 296.8C378.62 296.85 379.09 297.24 379.28 297.78C379.37 298.04 379.55 298.27 379.88 298.3C380.65 298.37 380.78 297.26 380.8 297.04C380.81 296.88 380.85 296.27 380.58 295.91C380.32 295.56 380.15 295.15 380.18 294.71C380.3 293.29 382.1 292.71 383.01 293.82C383.73 294.7 384.1 295.93 383.98 297.32C383.75 299.94 381.9 301.69 379.59 301.49H379.61Z" fill="#F0F0F0"/>
<path d="M349.53 265.7C348.65 265.62 348 264.85 348.08 263.97L349.29 250.1L363.16 251.31C364.04 251.39 364.69 252.16 364.61 253.04C364.53 253.92 363.76 254.57 362.88 254.49L352.2 253.56L351.27 264.24C351.19 265.12 350.42 265.77 349.54 265.69L349.53 265.7Z" fill="#F0F0F0"/>
<path d="M415.46 271.47C414.58 271.39 413.93 270.62 414.01 269.74L414.94 259.06L404.26 258.13C403.38 258.05 402.73 257.28 402.81 256.4C402.89 255.52 403.66 254.87 404.54 254.95L418.41 256.16L417.2 270.03C417.12 270.91 416.35 271.56 415.47 271.48L415.46 271.47Z" fill="#F0F0F0"/>
<path d="M410.55 346.02L396.68 344.81C395.8 344.73 395.15 343.96 395.23 343.08C395.31 342.2 396.08 341.55 396.96 341.63L407.64 342.56L408.57 331.88C408.65 331 409.42 330.35 410.3 330.43C411.18 330.51 411.83 331.28 411.75 332.16L410.54 346.03L410.55 346.02Z" fill="#F0F0F0"/>
<path d="M355.3 341.18L341.43 339.97L342.64 326.1C342.72 325.22 343.49 324.57 344.37 324.65C345.25 324.73 345.9 325.5 345.82 326.38L344.89 337.06L355.57 337.99C356.45 338.07 357.1 338.84 357.02 339.72C356.94 340.6 356.17 341.25 355.29 341.17L355.3 341.18Z" fill="#F0F0F0"/>
<path d="M54.73 311.17C54.19 311.22 53.71 310.82 53.66 310.28L52.91 301.75L61.44 301C61.98 300.95 62.46 301.35 62.51 301.89C62.56 302.43 62.16 302.91 61.62 302.96L55.06 303.53L55.63 310.09C55.68 310.63 55.28 311.11 54.74 311.16L54.73 311.17Z" fill="#E0E0E0"/>
<path d="M95.27 307.63C94.73 307.68 94.25 307.28 94.2 306.74L93.63 300.18L87.07 300.75C86.53 300.8 86.05 300.4 86 299.86C85.95 299.32 86.35 298.84 86.89 298.79L95.42 298.04L96.17 306.57C96.22 307.11 95.82 307.59 95.28 307.64L95.27 307.63Z" fill="#E0E0E0"/>
<path d="M102.47 344.34L93.94 345.09C93.4 345.14 92.92 344.74 92.87 344.2C92.82 343.66 93.22 343.18 93.76 343.13L100.32 342.56L99.75 336C99.7 335.46 100.1 334.98 100.64 334.93C101.18 334.88 101.66 335.28 101.71 335.82L102.46 344.35L102.47 344.34Z" fill="#E0E0E0"/>
<path d="M65.49 347.31L56.96 348.06L56.21 339.53C56.16 338.99 56.56 338.51 57.1 338.46C57.64 338.41 58.12 338.81 58.17 339.35L58.74 345.91L65.3 345.34C65.84 345.29 66.32 345.69 66.37 346.23C66.42 346.77 66.02 347.25 65.48 347.3L65.49 347.31Z" fill="#E0E0E0"/>
<path d="M94.58 169L61.95 171.85L61.28 164.21C60.59 156.29 66.47 149.28 74.39 148.59C82.31 147.9 89.32 153.78 90.01 161.7L90.4 166.14L95.11 165.73L94.72 161.29C93.8 150.77 84.49 142.96 73.98 143.88C63.46 144.8 55.65 154.11 56.57 164.62L57.24 172.3C53.44 173.04 50.74 176.54 51.08 180.48L53.41 207.12C53.78 211.33 57.49 214.45 61.71 214.08L98.24 210.88C102.45 210.51 105.57 206.8 105.2 202.58L102.87 175.94C102.5 171.73 98.79 168.61 94.57 168.98L94.58 169ZM80.72 189.53L81.52 198.7C81.65 200.21 80.54 201.53 79.03 201.67C77.52 201.8 76.2 200.69 76.06 199.18L75.26 190.01C74.06 189.27 73.21 188.01 73.07 186.5C72.85 183.97 74.72 181.73 77.26 181.51C79.79 181.29 82.03 183.16 82.25 185.7C82.38 187.21 81.76 188.6 80.71 189.54L80.72 189.53Z" fill="#EBEBEB"/>
<path d="M150.44 184.44L147.14 179.06C145.35 179.31 143.89 179.31 142.1 179.06L138.8 184.44L138.17 184.27C136.04 183.7 133.99 182.85 132.07 181.74L131.5 181.41L132.9 175.57C133.01 175.1 133.49 174.81 133.96 174.92C134.43 175.03 134.72 175.51 134.61 175.98L133.52 180.53C134.95 181.31 136.44 181.93 137.99 182.39L141.21 177.14L141.79 177.24C143.66 177.55 145.56 177.55 147.43 177.24L148.01 177.14L151.23 182.39C152.77 181.93 154.27 181.31 155.7 180.53L154.27 174.55L154.75 174.21C156.06 173.27 157.22 172.16 158.22 170.9C158.52 170.53 159.05 170.44 159.43 170.72C159.83 171.01 159.93 171.58 159.62 171.97C158.64 173.21 157.51 174.32 156.25 175.29L157.72 181.42L157.15 181.75C155.23 182.86 153.18 183.71 151.06 184.28L150.43 184.45L150.44 184.44ZM130.22 172.7C129.94 172.38 129.67 172.06 129.42 171.72L123.29 173.19L122.96 172.62C121.85 170.7 121 168.65 120.43 166.52L120.26 165.89L125.64 162.59C125.52 161.69 125.46 160.87 125.46 160.07C125.46 159.27 125.52 158.45 125.64 157.55L120.26 154.25L120.43 153.62C121 151.49 121.85 149.44 122.96 147.52L123.29 146.95L129.42 148.42C130.45 147.08 131.64 145.89 132.98 144.86L131.87 140.22C131.76 139.75 132.05 139.27 132.52 139.16C132.99 139.05 133.47 139.34 133.58 139.81L134.96 145.59L134.48 145.94C132.94 147.05 131.6 148.39 130.49 149.93L130.15 150.41L124.16 148.98C123.39 150.41 122.76 151.9 122.31 153.45L127.56 156.67L127.47 157.25C127.3 158.28 127.22 159.2 127.22 160.07C127.22 160.94 127.3 161.86 127.47 162.89L127.57 163.47L122.32 166.69C122.78 168.23 123.4 169.73 124.17 171.16L130.16 169.73L130.5 170.21C130.83 170.66 131.17 171.1 131.54 171.52C131.85 171.87 131.84 172.39 131.5 172.72L131.47 172.75C131.12 173.09 130.55 173.06 130.23 172.69L130.22 172.7ZM165.96 173.19L163.7 172.65C163.23 172.54 162.94 172.06 163.05 171.59C163.16 171.12 163.64 170.83 164.11 170.94L165.09 171.17C165.86 169.74 166.49 168.25 166.94 166.7L161.69 163.48L161.79 162.9C161.96 161.87 162.04 160.95 162.04 160.08C162.04 159.21 161.96 158.29 161.79 157.26L161.7 156.68L166.95 153.46C166.49 151.92 165.87 150.42 165.1 148.99L159.11 150.42L158.76 149.94C157.65 148.4 156.31 147.06 154.77 145.95L154.29 145.6L155.72 139.61C154.29 138.83 152.8 138.21 151.25 137.75L148.03 143L147.45 142.91C145.58 142.61 143.68 142.61 141.81 142.91L141.23 143L138.01 137.75C137.81 137.81 137.61 137.87 137.41 137.94C136.96 138.09 136.48 137.85 136.32 137.41C136.15 136.95 136.39 136.43 136.86 136.27C137.3 136.13 137.74 136 138.18 135.88L138.81 135.71L142.11 141.09C143.9 140.84 145.35 140.84 147.15 141.09L150.45 135.71L151.08 135.88C153.21 136.45 155.26 137.3 157.17 138.41L157.74 138.74L156.27 144.87C157.61 145.9 158.8 147.09 159.83 148.43L165.96 146.96L166.29 147.53C167.4 149.45 168.25 151.5 168.82 153.63L168.99 154.26L163.61 157.56C163.73 158.46 163.79 159.29 163.79 160.08C163.79 160.87 163.73 161.7 163.61 162.6L168.99 165.9L168.82 166.53C168.25 168.66 167.4 170.71 166.29 172.63L165.96 173.2V173.19ZM144.38 168.65C139.91 168.52 136.19 164.8 136.06 160.33C135.93 155.83 139.3 152.07 143.64 151.56C144.16 151.5 144.63 151.91 144.63 152.44C144.63 152.88 144.3 153.26 143.86 153.31C140.03 153.74 137.15 157.37 137.95 161.45C138.47 164.1 140.61 166.24 143.26 166.76C147.61 167.61 151.44 164.28 151.44 160.08C151.44 158.67 151.01 157.31 150.21 156.17C149.96 155.81 150.03 155.32 150.36 155.03C150.76 154.68 151.37 154.75 151.67 155.19C152.67 156.62 153.2 158.33 153.2 160.09C153.2 164.9 149.22 168.8 144.38 168.66V168.65Z" fill="#F0F0F0"/>
<path d="M88.31 257.64L86.18 254.17C85.03 254.33 84.08 254.33 82.93 254.17L80.8 257.64L80.39 257.53C79.02 257.16 77.69 256.61 76.45 255.9L76.08 255.69L76.98 251.92C77.05 251.61 77.36 251.43 77.67 251.5C77.98 251.57 78.16 251.88 78.09 252.19L77.38 255.13C78.3 255.63 79.27 256.03 80.27 256.33L82.35 252.94L82.73 253C83.94 253.2 85.17 253.2 86.37 253L86.75 252.94L88.83 256.33C89.83 256.03 90.8 255.63 91.72 255.13L90.79 251.26L91.1 251.04C91.95 250.43 92.7 249.72 93.34 248.9C93.53 248.66 93.87 248.6 94.12 248.78C94.38 248.97 94.44 249.34 94.24 249.59C93.6 250.39 92.87 251.11 92.06 251.73L93.01 255.69L92.64 255.9C91.4 256.62 90.08 257.17 88.7 257.53L88.29 257.64H88.31ZM75.25 250.06C75.07 249.86 74.9 249.64 74.73 249.43L70.77 250.38L70.56 250.01C69.84 248.77 69.29 247.45 68.93 246.07L68.82 245.66L72.29 243.53C72.21 242.95 72.17 242.42 72.17 241.9C72.17 241.38 72.21 240.85 72.29 240.27L68.82 238.14L68.93 237.73C69.3 236.36 69.85 235.03 70.56 233.79L70.77 233.42L74.73 234.37C75.39 233.5 76.17 232.73 77.03 232.07L76.31 229.07C76.24 228.77 76.42 228.46 76.73 228.39C77.03 228.32 77.34 228.5 77.41 228.81L78.3 232.54L77.99 232.77C77 233.48 76.13 234.35 75.41 235.35L75.19 235.66L71.32 234.73C70.82 235.65 70.42 236.62 70.12 237.62L73.51 239.7L73.45 240.08C73.34 240.75 73.29 241.34 73.29 241.9C73.29 242.46 73.34 243.06 73.45 243.72L73.51 244.1L70.12 246.18C70.42 247.18 70.82 248.15 71.32 249.07L75.19 248.14L75.41 248.45C75.62 248.74 75.85 249.03 76.08 249.3C76.28 249.53 76.27 249.86 76.06 250.07L76.04 250.09C75.81 250.31 75.45 250.29 75.24 250.05L75.25 250.06ZM98.34 250.38L96.88 250.03C96.57 249.96 96.39 249.65 96.46 249.34C96.53 249.03 96.84 248.85 97.15 248.92L97.78 249.07C98.28 248.15 98.68 247.18 98.98 246.18L95.59 244.1L95.65 243.72C95.76 243.05 95.81 242.46 95.81 241.9C95.81 241.34 95.76 240.74 95.65 240.08L95.59 239.7L98.98 237.62C98.68 236.62 98.28 235.65 97.78 234.73L93.91 235.66L93.69 235.35C92.98 234.36 92.11 233.49 91.11 232.77L90.8 232.54L91.73 228.67C90.81 228.17 89.84 227.77 88.84 227.47L86.76 230.86L86.38 230.8C85.17 230.6 83.94 230.6 82.73 230.8L82.35 230.86L80.27 227.47C80.14 227.51 80.01 227.55 79.88 227.59C79.59 227.68 79.28 227.53 79.18 227.24C79.07 226.94 79.23 226.6 79.53 226.51C79.81 226.42 80.1 226.33 80.38 226.26L80.79 226.15L82.92 229.62C84.08 229.46 85.01 229.46 86.17 229.62L88.3 226.15L88.71 226.26C90.08 226.63 91.41 227.18 92.65 227.89L93.02 228.1L92.07 232.06C92.94 232.72 93.71 233.5 94.37 234.36L98.33 233.41L98.54 233.78C99.26 235.02 99.81 236.34 100.17 237.72L100.28 238.13L96.81 240.26C96.89 240.84 96.93 241.37 96.93 241.89C96.93 242.41 96.89 242.94 96.81 243.52L100.28 245.65L100.17 246.06C99.8 247.43 99.25 248.76 98.54 250L98.33 250.37L98.34 250.38ZM84.4 247.45C81.51 247.37 79.11 244.96 79.02 242.08C78.94 239.17 81.11 236.74 83.92 236.42C84.26 236.38 84.56 236.65 84.56 236.99C84.56 237.28 84.35 237.52 84.06 237.55C81.59 237.83 79.73 240.17 80.24 242.81C80.58 244.52 81.96 245.9 83.67 246.24C86.48 246.79 88.95 244.64 88.95 241.93C88.95 241.02 88.67 240.14 88.15 239.4C87.99 239.17 88.03 238.85 88.24 238.66C88.5 238.43 88.89 238.48 89.09 238.76C89.73 239.68 90.08 240.79 90.08 241.92C90.08 245.03 87.51 247.54 84.38 247.46L84.4 247.45Z" fill="#E6E6E6"/>
<path d="M230 455.06C337.082 455.06 423.89 449.992 423.89 443.74C423.89 437.488 337.082 432.42 230 432.42C122.917 432.42 36.11 437.488 36.11 443.74C36.11 449.992 122.917 455.06 230 455.06Z" fill="#F5F5F5"/>
<path d="M343.45 173.87H310.89L287.86 437.12H320.42C329.68 437.12 337.87 429.59 338.68 420.33L358.77 190.67C359.58 181.41 352.71 173.88 343.45 173.88V173.87Z" fill="#407BFF"/>
<path d="M336.81 173.87H226.61C217.35 173.87 209.16 181.4 208.35 190.66L188.26 420.32C187.45 429.58 194.32 437.11 203.58 437.11H313.78C323.04 437.11 331.23 429.58 332.04 420.32L352.13 190.66C352.94 181.4 346.07 173.87 336.81 173.87Z" fill="#407BFF"/>
<path opacity="0.3" d="M336.81 173.87H226.61C217.35 173.87 209.16 181.4 208.35 190.66L188.26 420.32C187.45 429.58 194.32 437.11 203.58 437.11H313.78C323.04 437.11 331.23 429.58 332.04 420.32L352.13 190.66C352.94 181.4 346.07 173.87 336.81 173.87Z" fill="white"/>
<path opacity="0.4" d="M336.34 179.25H307.29C305.58 179.25 303.97 180.37 303.33 182.02C300.98 188.09 295.03 192.25 288.7 192.25H271.52C265.18 192.25 259.96 188.09 258.68 182.02C258.33 180.38 256.92 179.25 255.21 179.25H226.16C219.86 179.25 214.3 184.36 213.75 190.66L193.66 420.32C193.11 426.62 197.77 431.73 204.07 431.73H314.27C320.57 431.73 326.13 426.62 326.68 420.32L346.77 190.66C347.32 184.36 342.66 179.25 336.36 179.25H336.34Z" fill="white"/>
<path d="M308.88 304.01H231.76C229.47 304.01 227.78 302.16 227.98 299.87L228.37 295.46C228.57 293.17 230.59 291.32 232.87 291.32H309.99C312.28 291.32 313.97 293.17 313.77 295.46L313.38 299.87C313.18 302.16 311.16 304.01 308.88 304.01Z" fill="white"/>
<path d="M307.22 323.05H230.1C227.81 323.05 226.12 321.2 226.32 318.91L226.71 314.5C226.91 312.21 228.93 310.36 231.21 310.36H308.33C310.62 310.36 312.31 312.21 312.11 314.5L311.72 318.91C311.52 321.2 309.5 323.05 307.22 323.05Z" fill="white"/>
<path opacity="0.1" d="M285.45 183.56C285.23 186.1 282.99 188.15 280.46 188.15C277.93 188.15 276.05 186.09 276.27 183.56C276.49 181.02 278.73 178.97 281.26 178.97C283.79 178.97 285.67 181.03 285.45 183.56Z" fill="#221F03"/>
<path opacity="0.1" d="M283.37 183.56C283.25 184.95 282.03 186.07 280.64 186.07C279.25 186.07 278.23 184.95 278.35 183.56C278.47 182.17 279.69 181.05 281.08 181.05C282.47 181.05 283.49 182.17 283.37 183.56Z" fill="#221F03"/>
<g opacity="0.8">
<path d="M322.77 191.21C322.03 191.21 321.48 190.61 321.54 189.86L321.76 187.4C321.83 186.66 322.48 186.05 323.22 186.05C323.96 186.05 324.51 186.65 324.45 187.4L324.23 189.86C324.16 190.6 323.51 191.21 322.77 191.21Z" fill="white"/>
<path d="M333.53 191.21C332.79 191.21 332.24 190.61 332.3 189.86L332.8 184.09C332.86 183.35 333.52 182.74 334.26 182.74C335 182.74 335.55 183.34 335.49 184.09L334.99 189.86C334.93 190.6 334.27 191.21 333.53 191.21Z" fill="white"/>
<path d="M328.15 191.21C327.41 191.21 326.86 190.61 326.92 189.86L327.28 185.75C327.35 185.01 328 184.4 328.74 184.4C329.48 184.4 330.03 185 329.97 185.75L329.61 189.86C329.55 190.6 328.89 191.21 328.15 191.21Z" fill="white"/>
</g>
<g opacity="0.8">
<path d="M230.64 191.21H223.88C223.46 191.21 223.15 190.87 223.19 190.45L223.51 186.82C223.55 186.4 223.92 186.06 224.34 186.06H231.1C231.52 186.06 231.83 186.4 231.79 186.82L231.47 190.45C231.43 190.87 231.06 191.21 230.64 191.21Z" fill="white"/>
<path d="M233.77 190.23C233.35 190.23 233.04 189.89 233.08 189.47L233.23 187.81C233.27 187.39 233.64 187.05 234.06 187.05C234.48 187.05 234.79 187.39 234.75 187.81L234.6 189.47C234.56 189.89 234.19 190.23 233.77 190.23Z" fill="white"/>
</g>
<path d="M296.174 274.987C309.63 262.105 310.972 241.669 299.171 229.341C287.37 217.013 266.895 217.463 253.438 230.345C239.982 243.227 238.64 263.663 250.441 275.99C262.242 288.318 282.717 287.869 296.174 274.987Z" fill="white"/>
<path d="M274.92 251.43C266.43 251.43 259.27 254.66 258.66 261.67L257.98 269.45H288.71L289.39 261.67C290 254.66 283.41 251.43 274.92 251.43Z" fill="#407BFF"/>
<path d="M275.2 248.22C279.14 248.22 280.95 245.03 281.3 241.09C281.64 237.15 280.39 233.96 276.45 233.96C272.51 233.96 270.7 237.15 270.35 241.09C270.01 245.03 271.26 248.22 275.2 248.22Z" fill="#407BFF"/>
<path d="M305.36 297.43C303.26 297.43 301.5 298.23 301.34 299.96L301.17 301.88H308.76L308.93 299.96C309.08 298.23 307.45 297.43 305.36 297.43Z" fill="#407BFF"/>
<path d="M305.43 296.64C306.4 296.64 306.85 295.85 306.94 294.88C307.03 293.91 306.71 293.12 305.74 293.12C304.77 293.12 304.32 293.91 304.23 294.88C304.14 295.85 304.46 296.64 305.43 296.64Z" fill="#407BFF"/>
<path d="M281.99 342.09H251.98C248.47 342.09 245.88 339.25 246.19 335.74C246.5 332.23 249.59 329.39 253.09 329.39H283.1C286.61 329.39 289.2 332.23 288.89 335.74C288.58 339.25 285.49 342.09 281.99 342.09Z" fill="#407BFF"/>
<path d="M278.37 412.86H246.25C242.55 412.86 239.81 409.86 240.13 406.15L242.18 382.72C242.5 379.02 245.77 376.01 249.47 376.01H281.59C285.29 376.01 288.03 379.01 287.71 382.72L285.66 406.15C285.34 409.85 282.07 412.86 278.37 412.86Z" fill="#407BFF"/>
<g opacity="0.6">
<path d="M268.47 388.65C268.66 386.42 267.02 384.61 264.79 384.61C262.56 384.61 260.6 386.42 260.4 388.65C260.28 389.98 260.83 391.14 261.76 391.88L261.05 399.95C260.93 401.27 261.91 402.35 263.24 402.35C264.57 402.35 265.73 401.28 265.85 399.95L266.56 391.88C267.61 391.14 268.36 389.98 268.48 388.65H268.47Z" fill="white"/>
</g>
<path d="M281.88 380.9H277.74L278.75 369.31C279.36 362.35 274.19 356.68 267.22 356.68C260.25 356.68 254.09 362.35 253.48 369.31L252.47 380.9H248.33L249.34 369.31C250.15 360.06 258.33 352.54 267.58 352.54C276.83 352.54 283.69 360.06 282.88 369.31L281.87 380.9H281.88Z" fill="#407BFF"/>
<path d="M305.87 315.18L305.97 314.07C306.07 312.93 305.23 312.01 304.09 312.01C302.95 312.01 301.95 312.93 301.85 314.07L301.75 315.18C301.3 315.18 300.9 315.55 300.86 316L300.6 318.96C300.56 319.41 300.9 319.78 301.35 319.78H305.47C305.92 319.78 306.32 319.41 306.36 318.96L306.62 316C306.66 315.55 306.32 315.18 305.87 315.18ZM304.04 312.52C304.9 312.52 305.53 313.22 305.46 314.07L305.36 315.18H302.26L302.36 314.07C302.43 313.21 303.19 312.52 304.05 312.52H304.04Z" fill="#407BFF"/>
<path d="M243.85 316.37L242.41 316.07C242.24 316.03 242.15 315.86 242.22 315.69L242.82 314.27C242.95 313.97 242.58 313.74 242.35 313.98L241.26 315.1C241.13 315.23 240.92 315.23 240.82 315.1L239.93 313.98C239.74 313.74 239.33 313.96 239.41 314.27L239.76 315.69C239.8 315.86 239.68 316.04 239.51 316.07L238.02 316.37C237.7 316.43 237.66 316.88 237.97 316.95L239.41 317.25C239.58 317.29 239.67 317.46 239.6 317.63L239 319.05C238.87 319.35 239.24 319.58 239.47 319.34L240.56 318.22C240.69 318.09 240.9 318.09 241 318.22L241.89 319.34C242.08 319.58 242.49 319.36 242.41 319.05L242.06 317.63C242.02 317.46 242.14 317.28 242.31 317.25L243.8 316.95C244.12 316.89 244.16 316.44 243.85 316.37Z" fill="#263238"/>
<path d="M253.31 316.37L251.87 316.07C251.7 316.03 251.61 315.86 251.68 315.69L252.28 314.27C252.41 313.97 252.04 313.74 251.81 313.98L250.72 315.1C250.59 315.23 250.38 315.23 250.28 315.1L249.39 313.98C249.2 313.74 248.79 313.96 248.87 314.27L249.22 315.69C249.26 315.86 249.14 316.04 248.97 316.07L247.48 316.37C247.16 316.43 247.12 316.88 247.43 316.95L248.87 317.25C249.04 317.29 249.13 317.46 249.06 317.63L248.46 319.05C248.33 319.35 248.7 319.58 248.93 319.34L250.02 318.22C250.15 318.09 250.36 318.09 250.46 318.22L251.35 319.34C251.54 319.58 251.95 319.36 251.87 319.05L251.52 317.63C251.48 317.46 251.6 317.28 251.77 317.25L253.26 316.95C253.58 316.89 253.62 316.44 253.31 316.37Z" fill="#263238"/>
<path d="M262.77 316.37L261.33 316.07C261.16 316.03 261.07 315.86 261.14 315.69L261.74 314.27C261.87 313.97 261.5 313.74 261.27 313.98L260.18 315.1C260.05 315.23 259.84 315.23 259.74 315.1L258.85 313.98C258.66 313.74 258.25 313.96 258.33 314.27L258.68 315.69C258.72 315.86 258.6 316.04 258.43 316.07L256.94 316.37C256.62 316.43 256.58 316.88 256.89 316.95L258.33 317.25C258.5 317.29 258.59 317.46 258.52 317.63L257.92 319.05C257.79 319.35 258.16 319.58 258.39 319.34L259.48 318.22C259.61 318.09 259.82 318.09 259.92 318.22L260.81 319.34C261 319.58 261.41 319.36 261.33 319.05L260.98 317.63C260.94 317.46 261.06 317.28 261.23 317.25L262.72 316.95C263.04 316.89 263.08 316.44 262.77 316.37Z" fill="#263238"/>
<path d="M272.24 316.37L270.8 316.07C270.63 316.03 270.54 315.86 270.61 315.69L271.21 314.27C271.34 313.97 270.97 313.74 270.74 313.98L269.65 315.1C269.52 315.23 269.31 315.23 269.21 315.1L268.32 313.98C268.13 313.74 267.72 313.96 267.8 314.27L268.15 315.69C268.19 315.86 268.07 316.04 267.9 316.07L266.41 316.37C266.09 316.43 266.05 316.88 266.36 316.95L267.8 317.25C267.97 317.29 268.06 317.46 267.99 317.63L267.39 319.05C267.26 319.35 267.63 319.58 267.86 319.34L268.95 318.22C269.08 318.09 269.29 318.09 269.39 318.22L270.28 319.34C270.47 319.58 270.88 319.36 270.8 319.05L270.45 317.63C270.41 317.46 270.53 317.28 270.7 317.25L272.19 316.95C272.51 316.89 272.55 316.44 272.24 316.37Z" fill="#263238"/>
<path d="M281.7 316.37L280.26 316.07C280.09 316.03 280 315.86 280.07 315.69L280.67 314.27C280.8 313.97 280.43 313.74 280.2 313.98L279.11 315.1C278.98 315.23 278.77 315.23 278.67 315.1L277.78 313.98C277.59 313.74 277.18 313.96 277.26 314.27L277.61 315.69C277.65 315.86 277.53 316.04 277.36 316.07L275.87 316.37C275.55 316.43 275.51 316.88 275.82 316.95L277.26 317.25C277.43 317.29 277.52 317.46 277.45 317.63L276.85 319.05C276.72 319.35 277.09 319.58 277.32 319.34L278.41 318.22C278.54 318.09 278.75 318.09 278.85 318.22L279.74 319.34C279.93 319.58 280.34 319.36 280.26 319.05L279.91 317.63C279.87 317.46 279.99 317.28 280.16 317.25L281.65 316.95C281.97 316.89 282.01 316.44 281.7 316.37Z" fill="#263238"/>
<path d="M291.16 316.37L289.72 316.07C289.55 316.03 289.46 315.86 289.53 315.69L290.13 314.27C290.26 313.97 289.89 313.74 289.66 313.98L288.57 315.1C288.44 315.23 288.23 315.23 288.13 315.1L287.24 313.98C287.05 313.74 286.64 313.96 286.72 314.27L287.07 315.69C287.11 315.86 286.99 316.04 286.82 316.07L285.33 316.37C285.01 316.43 284.97 316.88 285.28 316.95L286.72 317.25C286.89 317.29 286.98 317.46 286.91 317.63L286.31 319.05C286.18 319.35 286.55 319.58 286.78 319.34L287.87 318.22C288 318.09 288.21 318.09 288.31 318.22L289.2 319.34C289.39 319.58 289.8 319.36 289.72 319.05L289.37 317.63C289.33 317.46 289.45 317.28 289.62 317.25L291.11 316.95C291.43 316.89 291.47 316.44 291.16 316.37Z" fill="#263238"/>
<path d="M268.35 295.66H250.58C249.48 295.66 248.5 296.56 248.41 297.66C248.31 298.76 249.13 299.66 250.23 299.66H268C269.1 299.66 270.08 298.76 270.17 297.66C270.27 296.56 269.45 295.66 268.35 295.66Z" fill="#263238"/>
<path d="M286.39 295.66H276.08C274.98 295.66 274 296.56 273.91 297.66C273.81 298.76 274.63 299.66 275.73 299.66H286.04C287.14 299.66 288.12 298.76 288.21 297.66C288.31 296.56 287.49 295.66 286.39 295.66Z" fill="#263238"/>
<path d="M300 386.31C293.3 388.99 287.43 392.89 283.41 397.32C281.05 395.31 277.7 393.92 273.69 393.28L273.22 393.21L273.01 395.57L273.27 395.67C277.23 397.17 280.46 399.83 282.6 403.36L282.94 403.91L283.31 403.32C287.43 396.72 293.44 391.2 300.23 387.76L300.46 387.64L300.6 386.07L300.01 386.31H300Z" fill="#263238"/>
<path opacity="0.2" d="M210.64 189.42C209.39 191.62 208.57 194.07 208.34 196.67L193.45 366.89H239.53L248.79 331.4L245.74 295.91L255 260.42L251.95 224.93L261.21 189.44H210.65L210.64 189.42Z" fill="#221F03"/>
<path d="M247.95 214.91L257.21 179.42H140.68L131.43 214.91L134.47 250.41L125.22 285.9L128.26 321.39L119.01 356.89H235.53L244.79 321.39L241.74 285.9L251 250.41L247.95 214.91Z" fill="#407BFF"/>
<path opacity="0.7" d="M247.95 214.91L257.21 179.42H140.68L131.43 214.91L134.47 250.41L125.22 285.9L128.26 321.39L119.01 356.89H235.53L244.79 321.39L241.74 285.9L251 250.41L247.95 214.91Z" fill="white"/>
<path opacity="0.5" d="M247.95 214.91H131.43L140.68 179.42H257.21L247.95 214.91Z" fill="white"/>
<path opacity="0.5" d="M241.74 285.9H125.22L134.47 250.41H251L241.74 285.9Z" fill="white"/>
<path opacity="0.5" d="M235.53 356.89H119.01L128.26 321.39H244.79L235.53 356.89Z" fill="white"/>
<path opacity="0.2" d="M232.36 229.75C231.36 230.06 230.08 230.25 228.68 230.25C226.62 230.25 224.82 229.84 223.79 229.23C223.51 229.06 223.2 228.98 222.89 228.98C222.6 228.98 222.32 229.06 222.05 229.21C222.03 229.22 222.01 229.22 221.99 229.24C221.99 229.24 221.97 229.25 221.95 229.26C221.57 229.48 221.09 229.68 220.53 229.83C219.57 230.1 218.38 230.26 217.1 230.26C216.75 230.26 216.41 230.25 216.08 230.23C215.08 230.16 214.17 230 213.42 229.76C213.29 229.72 213.16 229.69 213.03 229.69C212.12 229.63 211.31 230.33 211.31 231.29V232.37H166.02C162.51 232.37 159.67 235.21 159.67 238.72V245.12C159.67 248.63 162.51 251.47 166.02 251.47H217.55C217.66 251.47 217.77 251.46 217.89 251.45C218.45 251.91 219.02 252.37 219.64 252.83C220.37 253.39 221.15 253.95 221.96 254.54C222.52 254.95 223.3 254.95 223.86 254.54C230.34 249.84 234.5 246.6 234.5 237.69V231.29C234.5 230.19 233.43 229.44 232.39 229.77L232.36 229.75Z" fill="#221F03"/>
<path d="M216.54 228.83H165.02C161.513 228.83 158.67 231.673 158.67 235.18V241.57C158.67 245.077 161.513 247.92 165.02 247.92H216.54C220.047 247.92 222.89 245.077 222.89 241.57V235.18C222.89 231.673 220.047 228.83 216.54 228.83Z" fill="#407BFF"/>
<path d="M227.69 226.72C225.63 226.72 223.83 226.31 222.8 225.7C222.24 225.36 221.56 225.36 221 225.7C219.97 226.31 218.16 226.72 216.11 226.72C214.71 226.72 213.43 226.53 212.43 226.22C211.38 225.89 210.32 226.65 210.32 227.74V234.14C210.32 243.05 214.48 246.29 220.96 250.99C221.52 251.4 222.3 251.4 222.86 250.99C229.34 246.29 233.5 243.05 233.5 234.14V227.74C233.5 226.64 232.43 225.89 231.39 226.22C230.39 226.53 229.11 226.72 227.71 226.72H227.69Z" fill="#407BFF"/>
<path opacity="0.3" d="M227.69 226.72C225.63 226.72 223.83 226.31 222.8 225.7C222.24 225.36 221.56 225.36 221 225.7C219.97 226.31 218.16 226.72 216.11 226.72C214.71 226.72 213.43 226.53 212.43 226.22C211.38 225.89 210.32 226.65 210.32 227.74V234.14C210.32 243.05 214.48 246.29 220.96 250.99C221.52 251.4 222.3 251.4 222.86 250.99C229.34 246.29 233.5 243.05 233.5 234.14V227.74C233.5 226.64 232.43 225.89 231.39 226.22C230.39 226.53 229.11 226.72 227.71 226.72H227.69Z" fill="white"/>
<path opacity="0.2" d="M221 225.7C219.97 226.31 218.16 226.72 216.11 226.72C214.71 226.72 213.43 226.53 212.43 226.22C211.38 225.89 210.32 226.65 210.32 227.74V234.14C210.32 243.05 214.48 246.29 220.96 250.99C221.24 251.19 221.58 251.3 221.91 251.3V225.45C221.6 225.45 221.29 225.53 221.01 225.7H221Z" fill="white"/>
<path d="M231.19 232.4C227 234.13 223.42 236.66 221.07 239.53C219.43 238.23 217.18 237.33 214.54 236.92L214.23 236.87V238.4L214.41 238.46C217.06 239.43 219.3 241.15 220.89 243.44L221.14 243.8L221.35 243.41C223.64 239.14 227.22 235.56 231.42 233.33L231.56 233.25V232.23L231.19 232.38V232.4Z" fill="#263238"/>
<path d="M255.15 189.4H250.73C248.28 189.4 246.46 187.41 246.68 184.96L247.07 180.54C247.28 178.09 249.45 176.1 251.9 176.1H256.32C258.77 176.1 260.59 178.09 260.37 180.54L259.98 184.96C259.77 187.41 257.6 189.4 255.15 189.4Z" fill="#407BFF"/>
<path d="M256.99 180.53L256.03 179.48L253.61 181.7L251.59 179.48L250.44 180.53L252.47 182.75L250.06 184.97L251.02 186.03L253.43 183.81L255.46 186.03L256.6 184.97L254.57 182.75L256.99 180.53Z" fill="white"/>
<path d="M156.37 227.54C158.93 230.33 161.38 233.21 163.8 236.13C166.22 239.04 168.58 242 170.91 244.99C171.01 245.12 170.97 245.07 171 245.11C171.01 245.13 171.01 245.16 171.03 245.17C171.06 245.2 171.07 245.25 171.1 245.27C171.15 245.34 171.21 245.4 171.28 245.47C171.42 245.6 171.62 245.69 171.83 245.73C171.94 245.75 172.05 245.76 172.17 245.75C172.23 245.75 172.29 245.74 172.35 245.74C172.38 245.74 172.41 245.72 172.44 245.72C172.49 245.7 172.46 245.74 172.6 245.66L175.1 244.3C178.46 242.52 181.85 240.78 185.35 239.22L188.28 242.85C185.46 245.45 182.52 248.69 179.55 251.07L177.31 252.83C177.25 252.88 177.01 253.04 176.86 253.14C176.69 253.25 176.52 253.37 176.34 253.47C175.98 253.67 175.61 253.87 175.22 254.02C174.45 254.35 173.63 254.56 172.8 254.69C171.13 254.94 169.4 254.77 167.78 254.19C166.97 253.9 166.19 253.51 165.48 253.02C165.12 252.78 164.78 252.51 164.45 252.23C164.28 252.09 164.13 251.94 163.98 251.79L163.58 251.39C160.93 248.68 158.32 245.94 155.76 243.14C153.2 240.35 150.67 237.53 148.25 234.62L156.36 227.54H156.37Z" fill="#B55B52"/>
<path d="M183.99 241.43L186.32 233.94L192.46 237C192.46 237 191.57 242.46 187.1 243.41L183.99 241.43Z" fill="#B55B52"/>
<path d="M188.78 231.87L194.32 233.39L192.46 237L186.32 233.94L188.78 231.87Z" fill="#B55B52"/>
<path d="M124.09 229.58C123.42 232.76 122.61 235.91 121.75 239.04C120.9 242.18 119.97 245.3 119 248.4L118.64 249.57L118.46 250.15C118.42 250.28 118.4 250.31 118.36 250.39C118.25 250.68 118.18 251 118.17 251.34C118.15 252.01 118.31 252.75 118.75 253.39C118.79 253.49 119.13 253.86 119.4 254.15L120.23 255.05L121.87 256.88C122.95 258.12 124.02 259.36 125.04 260.66L121.56 264.69C120.12 263.87 118.74 262.99 117.36 262.1L115.31 260.75L114.3 260.06C113.96 259.82 113.68 259.66 113.13 259.2C111.23 257.59 109.81 255.3 109.29 252.75C109.02 251.48 108.96 250.16 109.11 248.85C109.15 248.54 109.21 248.17 109.26 247.9L109.37 247.3L109.58 246.1C110.14 242.89 110.74 239.69 111.41 236.52C112.08 233.34 112.79 230.17 113.65 227.03L124.11 229.56L124.09 229.58Z" fill="#B55B52"/>
<path d="M121.63 260.39L125.76 258.28L127.58 265.29C127.58 265.29 124.27 266.56 121.71 264.93L121.64 260.39H121.63Z" fill="#B55B52"/>
<path d="M131.45 256.04L131.64 262.47L127.03 265.49L125.43 258.42L131.45 256.04Z" fill="#B55B52"/>
<path d="M144.94 196.52C145.04 197.02 145.38 197.36 145.71 197.3C146.03 197.23 146.22 196.78 146.11 196.28C146 195.78 145.66 195.44 145.34 195.5C145.02 195.57 144.84 196.02 144.94 196.52Z" fill="#263238"/>
<path d="M145.34 197.37C145.34 197.37 147.05 200 148.57 201.13C147.86 202.13 146.29 202.06 146.29 202.06L145.34 197.38V197.37Z" fill="#A02724"/>
<path d="M142.57 194.13C142.5 194.13 142.43 194.1 142.37 194.05C142.25 193.94 142.24 193.75 142.35 193.63C143.47 192.42 144.82 192.64 144.88 192.65C145.04 192.68 145.15 192.83 145.12 192.99C145.09 193.15 144.94 193.26 144.78 193.23C144.78 193.23 143.68 193.07 142.79 194.03C142.73 194.09 142.65 194.13 142.57 194.13Z" fill="#263238"/>
<path d="M130.52 203.49C131.62 208.08 132.72 216.48 128.79 219.54C128.79 219.54 130.33 224.19 140.79 224.19C152.29 224.19 146.29 221.19 146.29 221.19C140.01 219.97 140.18 214.52 141.27 210.95L130.53 203.48L130.52 203.49Z" fill="#B55B52"/>
<path d="M127.56 220.39C126.87 219.12 126.12 217.66 127.68 217.2C129.4 216.7 140.43 215.77 143.67 216.71C142.67 218.48 144.36 220.66 144.36 220.66L127.56 220.39Z" fill="#263238"/>
<path d="M136.7 434.97H143.91L144.63 420.45H137.41L136.7 434.97Z" fill="#B55B52"/>
<path d="M90.91 432.97L98.22 433.35L102.66 419.05L95.35 418.66L90.91 432.97Z" fill="#B55B52"/>
<path d="M98 432.77L91.12 431.28C90.87 431.23 90.61 431.35 90.51 431.59L88.12 436.77C87.87 437.31 88.2 437.94 88.78 438.05C91.19 438.53 92.39 438.64 95.42 439.3C97.28 439.7 101.49 440.73 104.06 441.28C106.58 441.82 107.52 439.37 106.52 438.91C102.02 436.85 100.14 435.05 98.93 433.36C98.71 433.06 98.38 432.85 98.02 432.77H98Z" fill="#263238"/>
<path d="M143.53 434.24H136.68C136.42 434.24 136.2 434.42 136.15 434.67L134.91 440.24C134.78 440.82 135.22 441.37 135.81 441.36C138.28 441.32 141.85 441.17 144.95 441.17C148.58 441.17 151.72 441.37 155.97 441.37C158.54 441.37 159.26 438.77 158.18 438.53C153.27 437.46 149.27 437.34 145.03 434.73C144.57 434.45 144.06 434.24 143.52 434.24H143.53Z" fill="#263238"/>
<path d="M115.72 221.66C110.27 224.25 108.8 239.94 108.8 239.94L122.27 246.16C122.27 246.16 125.61 241.23 125.87 233.49C126.14 225.38 121.29 219 115.73 221.65L115.72 221.66Z" fill="#263238"/>
<path opacity="0.4" d="M123.03 231.34C120.6 235.11 120.83 240.96 121.67 245.89L122.27 246.17C122.27 246.17 125.62 241.24 125.87 233.5C125.88 233.02 125.88 232.54 125.87 232.07L123.03 231.34Z" fill="#221F03"/>
<path d="M153.31 221.28C153.31 221.28 159.98 228.82 153.68 275.47H120.14C119.91 270.32 123.14 245.21 118.18 220.95C118.18 220.95 123.93 219.8 129.41 219.53C133.7 219.32 139.9 219.19 143.67 219.53C148.64 219.98 153.31 221.27 153.31 221.27V221.28Z" fill="#407BFF"/>
<path opacity="0.6" d="M153.31 221.28C153.31 221.28 159.98 228.82 153.68 275.47H120.14C119.91 270.32 123.14 245.21 118.18 220.95C118.18 220.95 123.93 219.8 129.41 219.53C133.7 219.32 139.9 219.19 143.67 219.53C148.64 219.98 153.31 221.27 153.31 221.27V221.28Z" fill="#FAFAFA"/>
<path opacity="0.2" d="M156.24 235.54L156.11 235.43L149.44 231.87C148.76 242.14 153.35 248.58 156.08 251.39C156.46 244.81 156.45 239.62 156.23 235.54H156.24Z" fill="#221F03"/>
<path opacity="0.2" d="M144.63 420.45L144.26 427.93H137.04L137.41 420.45H144.63Z" fill="#221F03"/>
<path opacity="0.2" d="M95.35 418.66L102.66 419.05L100.37 426.42L93.06 426.04L95.35 418.66Z" fill="#221F03"/>
<path d="M128.2 198.83C129.81 204.84 130.45 208.44 134.16 210.94C139.74 214.7 146.69 210.38 146.9 204.01C147.1 198.28 144.43 189.41 137.98 188.2C131.63 187.01 126.59 192.82 128.2 198.83Z" fill="#B55B52"/>
<path d="M141.79 275.48C141.79 275.48 134.67 323.4 130.77 341.35C126.49 361.01 103.55 426.05 103.55 426.05L92.33 423.62C92.33 423.62 106.71 370.62 110.3 343.13C111.7 332.41 113.39 315.12 115.53 300.7C117.6 286.74 120.15 275.48 120.15 275.48H141.79Z" fill="#263238"/>
<path d="M106.24 422.29L104.15 426.35L91.52 423.62L92.58 419.82L106.24 422.29Z" fill="#407BFF"/>
<path opacity="0.6" d="M106.24 422.29L104.15 426.35L91.52 423.62L92.58 419.82L106.24 422.29Z" fill="white"/>
<path opacity="0.6" d="M137.29 292.55C129.06 294.16 129.93 324.85 130.92 340.63C133.29 329.47 136.77 308.01 139.14 292.77C138.59 292.5 137.98 292.41 137.29 292.55Z" fill="#221F03"/>
<path d="M153.68 275.48C153.68 275.48 157.03 322.36 156.34 341.48C155.63 361.37 146.2 426.49 146.2 426.49H135.58C135.58 426.49 135.19 362.53 134.72 343C134.2 321.71 131.63 275.48 131.63 275.48H153.67H153.68Z" fill="#263238"/>
<path d="M148.25 422.25L147.65 426.66H134.73L134.38 422.72L148.25 422.25Z" fill="#407BFF"/>
<path opacity="0.6" d="M148.25 422.25L147.65 426.66H134.73L134.38 422.72L148.25 422.25Z" fill="white"/>
<path d="M149.4 230.06C149.4 242.64 156.1 247.82 156.1 247.82L166.98 237.18C166.98 237.18 163.28 230.81 158.19 224.95C151.9 217.72 149.4 221.96 149.4 230.06Z" fill="#263238"/>
<path opacity="0.2" d="M146.52 206.29C146.24 207.06 145.52 208.37 143.7 208.89C141.04 209.65 141.01 211.9 141.01 211.9L141.04 211.94C143.57 211.1 145.68 209.01 146.52 206.29Z" fill="#221F03"/>
<path d="M143.7 186.88C145.94 184.05 142.49 183.92 142.49 183.92C143.39 180.55 139.35 182.36 139.35 182.36C136.93 179.02 135.56 183.08 135.56 183.08C133.05 180.25 132.59 184.87 132.59 184.87C130.07 181.28 128.79 186.46 128.79 186.46C126.47 182.73 125.05 187.59 125.05 187.59C120.26 185.88 122.54 190.85 122.54 190.85C118.45 190.96 121.73 194.13 121.73 194.13C116.83 194.14 121.15 196.95 121.15 196.95C117.26 199.5 122.14 200.19 122.14 200.19C118.97 205.15 124.42 203.31 124.42 203.31C122.21 208.22 127.11 206.06 127.11 206.06C126.79 210.8 129.53 209.51 130.85 208.63C131.1 209.58 131.58 210.6 132.46 210.71C134.17 210.93 134.5 207.71 134.5 207.71C134.5 207.71 136.09 208.94 137.41 208.27C138.74 207.6 138.24 205.91 138.24 205.91C138.24 205.91 139.26 206.67 140.19 205.94C140.76 205.5 140.76 202.31 140.04 201.19L142.64 200.17C142.64 200.17 144.57 199.9 143.71 197.35C142.85 194.8 143.58 192.79 143.58 192.79C146.52 191.41 144.11 189.76 144.11 189.76C147.51 187.56 143.71 186.86 143.71 186.86L143.7 186.88Z" fill="#263238"/>
<path d="M138.43 199.08C138.84 200.66 139.88 202.01 140.96 202.82C142.59 204.03 143.81 202.84 143.69 200.99C143.59 199.33 142.61 196.69 140.81 196.2C139.04 195.71 137.96 197.27 138.42 199.08H138.43Z" fill="#B55B52"/>
</g>
<path d="M0 0H460H0ZM460 538H0H460ZM0 538V0V538ZM452 0C456.971 0 461 4.02944 461 9V529C461 533.971 456.971 538 452 538C455.866 538 459 534.418 459 530V8C459 3.58172 455.866 0 452 0Z" fill="#F7F7F7" mask="url(#path-1-inside-1_2_174)"/>
<defs>
<clipPath id="clip0_2_174">
<path d="M0 7.99999C0 3.58171 3.58172 0 8 0H452C456.418 0 460 3.58172 460 8V530C460 534.418 456.418 538 452 538H8.00001C3.58173 538 0 534.418 0 530V7.99999Z" fill="white"/>
</clipPath>
</defs>
</svg>
